<svg width="84" height="19" viewBox="0 0 84 19" fill="none" xmlns="http://www.w3.org/2000/svg">
<path d="M9.432 18.0003L4.896 10.0803V9.02426H5.424C6.704 9.02426 7.68 8.84026 8.352 8.47226C9.04 8.10426 9.44 7.44026 9.552 6.48026H4.896V4.94426H9.528C9.368 4.04826 8.944 3.40026 8.256 3.00026C7.584 2.60026 6.64 2.40026 5.424 2.40026H4.896V0.864258H14.832V2.40026H10.296C11.064 3.02426 11.52 3.87226 11.664 4.94426H14.832V6.48026H11.712C11.6 7.64826 11.152 8.56026 10.368 9.21626C9.6 9.85626 8.576 10.2643 7.296 10.4403L11.88 18.0003H9.432Z" fill="black"/>
<path d="M24.2224 18.2883C23.0704 18.2883 22.0704 18.0803 21.2224 17.6643C20.3744 17.2483 19.6944 16.6803 19.1824 15.9603C18.6864 15.2243 18.3824 14.3923 18.2704 13.4643H20.2384C20.4304 14.3923 20.8784 15.1443 21.5824 15.7203C22.2864 16.2803 23.1744 16.5603 24.2464 16.5603C25.0464 16.5603 25.7344 16.3763 26.3104 16.0083C26.8864 15.6243 27.3264 15.1123 27.6304 14.4723C27.9504 13.8323 28.1104 13.1203 28.1104 12.3363C28.1104 11.0883 27.7584 10.0803 27.0544 9.31226C26.3504 8.54426 25.4384 8.16026 24.3184 8.16026C23.3904 8.16026 22.5984 8.36826 21.9424 8.78426C21.2864 9.20026 20.8064 9.74426 20.5024 10.4163H18.5824L20.0224 1.20026H28.8304V2.95226H21.5824L20.5984 8.06426C20.9824 7.60026 21.5104 7.21626 22.1824 6.91226C22.8704 6.60826 23.6544 6.45626 24.5344 6.45626C25.6384 6.45626 26.5984 6.71226 27.4144 7.22426C28.2464 7.73626 28.8944 8.43226 29.3584 9.31226C29.8224 10.1923 30.0544 11.1923 30.0544 12.3123C30.0544 13.3843 29.8224 14.3763 29.3584 15.2883C28.9104 16.2003 28.2464 16.9283 27.3664 17.4723C26.5024 18.0163 25.4544 18.2883 24.2224 18.2883Z" fill="black"/>
<path d="M40.8137 18.0003V14.4003H32.2937V12.8403L40.4537 1.20026H42.8057V12.6243H45.3017V14.4003H42.8057V18.0003H40.8137ZM34.5257 12.6243H40.9097V3.43226L34.5257 12.6243Z" fill="black"/>
<path d="M54.2889 18.2883C52.8009 18.2883 51.5129 17.9283 50.4249 17.2083C49.3529 16.4723 48.5289 15.4563 47.9529 14.1603C47.3769 12.8483 47.0889 11.3283 47.0889 9.60026C47.0889 7.87226 47.3769 6.36026 47.9529 5.06426C48.5289 3.75226 49.3529 2.73626 50.4249 2.01626C51.5129 1.28026 52.8009 0.912259 54.2889 0.912259C55.7769 0.912259 57.0569 1.28026 58.1289 2.01626C59.2009 2.73626 60.0249 3.75226 60.6009 5.06426C61.1769 6.36026 61.4649 7.87226 61.4649 9.60026C61.4649 11.3283 61.1769 12.8483 60.6009 14.1603C60.0249 15.4563 59.2009 16.4723 58.1289 17.2083C57.0569 17.9283 55.7769 18.2883 54.2889 18.2883ZM54.2889 16.5123C55.2649 16.5123 56.1369 16.2403 56.9049 15.6963C57.6889 15.1363 58.2969 14.3443 58.7289 13.3203C59.1769 12.2803 59.4009 11.0403 59.4009 9.60026C59.4009 8.16026 59.1769 6.92826 58.7289 5.90426C58.2969 4.88026 57.6889 4.09626 56.9049 3.55226C56.1369 2.99226 55.2649 2.71226 54.2889 2.71226C53.2969 2.71226 52.4169 2.99226 51.6489 3.55226C50.8809 4.09626 50.2729 4.88026 49.8249 5.90426C49.3769 6.92826 49.1529 8.16026 49.1529 9.60026C49.1529 11.0403 49.3769 12.2803 49.8249 13.3203C50.2729 14.3443 50.8809 15.1363 51.6489 15.6963C52.4169 16.2403 53.2969 16.5123 54.2889 16.5123Z" fill="black"/>
<path d="M70.9296 18.2883C69.4416 18.2883 68.1536 17.9283 67.0656 17.2083C65.9936 16.4723 65.1696 15.4563 64.5936 14.1603C64.0176 12.8483 63.7296 11.3283 63.7296 9.60026C63.7296 7.87226 64.0176 6.36026 64.5936 5.06426C65.1696 3.75226 65.9936 2.73626 67.0656 2.01626C68.1536 1.28026 69.4416 0.912259 70.9296 0.912259C72.4176 0.912259 73.6976 1.28026 74.7696 2.01626C75.8416 2.73626 76.6656 3.75226 77.2416 5.06426C77.8176 6.36026 78.1056 7.87226 78.1056 9.60026C78.1056 11.3283 77.8176 12.8483 77.2416 14.1603C76.6656 15.4563 75.8416 16.4723 74.7696 17.2083C73.6976 17.9283 72.4176 18.2883 70.9296 18.2883ZM70.9296 16.5123C71.9056 16.5123 72.7776 16.2403 73.5456 15.6963C74.3296 15.1363 74.9376 14.3443 75.3696 13.3203C75.8176 12.2803 76.0416 11.0403 76.0416 9.60026C76.0416 8.16026 75.8176 6.92826 75.3696 5.90426C74.9376 4.88026 74.3296 4.09626 73.5456 3.55226C72.7776 2.99226 71.9056 2.71226 70.9296 2.71226C69.9376 2.71226 69.0576 2.99226 68.2896 3.55226C67.5216 4.09626 66.9136 4.88026 66.4656 5.90426C66.0176 6.92826 65.7936 8.16026 65.7936 9.60026C65.7936 11.0403 66.0176 12.2803 66.4656 13.3203C66.9136 14.3443 67.5216 15.1363 68.2896 15.6963C69.0576 16.2403 69.9376 16.5123 70.9296 16.5123Z" fill="black"/>
<path d="M1 14C16.2745 11.4118 54.0588 6.18824 83 6C64.5098 7.41176 22.2235 10.9882 1 14Z" stroke="#5DD9FF" stroke-width="4" stroke-linecap="round"/>
</svg>
