<svg width="84" height="19" viewBox="0 0 84 19" fill="none" xmlns="http://www.w3.org/2000/svg">
<path d="M9.432 18.0003L4.896 10.0803V9.02426H5.424C6.704 9.02426 7.68 8.84026 8.352 8.47226C9.04 8.10426 9.44 7.44026 9.552 6.48026H4.896V4.94426H9.528C9.368 4.04826 8.944 3.40026 8.256 3.00026C7.584 2.60026 6.64 2.40026 5.424 2.40026H4.896V0.864258H14.832V2.40026H10.296C11.064 3.02426 11.52 3.87226 11.664 4.94426H14.832V6.48026H11.712C11.6 7.64826 11.152 8.56026 10.368 9.21626C9.6 9.85626 8.576 10.2643 7.296 10.4403L11.88 18.0003H9.432Z" fill="white"/>
<path d="M18.2464 18.0003V16.5843C19.3824 15.6883 20.4544 14.7843 21.4624 13.8723C22.4864 12.9443 23.3904 12.0323 24.1744 11.1363C24.9744 10.2403 25.5984 9.36026 26.0464 8.49626C26.5104 7.63226 26.7424 6.80026 26.7424 6.00026C26.7424 5.40826 26.6384 4.85626 26.4304 4.34426C26.2384 3.83226 25.9184 3.42426 25.4704 3.12026C25.0224 2.80026 24.4144 2.64026 23.6464 2.64026C22.9104 2.64026 22.2944 2.80826 21.7984 3.14426C21.3024 3.46426 20.9264 3.89626 20.6704 4.44026C20.4304 4.98426 20.3104 5.56826 20.3104 6.19226H18.3664C18.3664 5.08826 18.5984 4.14426 19.0624 3.36026C19.5264 2.56026 20.1584 1.95226 20.9584 1.53626C21.7584 1.12026 22.6624 0.912259 23.6704 0.912259C25.1584 0.912259 26.3744 1.33626 27.3184 2.18426C28.2784 3.01626 28.7584 4.26426 28.7584 5.92826C28.7584 6.92026 28.5104 7.90426 28.0144 8.88026C27.5184 9.84026 26.8864 10.7763 26.1184 11.6883C25.3504 12.5843 24.5264 13.4243 23.6464 14.2083C22.7824 14.9923 21.9744 15.6963 21.2224 16.3203H29.3344V18.0003H18.2464Z" fill="white"/>
<path d="M38.5624 18.2883C37.0744 18.2883 35.7864 17.9283 34.6984 17.2083C33.6264 16.4723 32.8024 15.4563 32.2264 14.1603C31.6504 12.8483 31.3624 11.3283 31.3624 9.60026C31.3624 7.87226 31.6504 6.36026 32.2264 5.06426C32.8024 3.75226 33.6264 2.73626 34.6984 2.01626C35.7864 1.28026 37.0744 0.912259 38.5624 0.912259C40.0504 0.912259 41.3304 1.28026 42.4024 2.01626C43.4744 2.73626 44.2984 3.75226 44.8744 5.06426C45.4504 6.36026 45.7384 7.87226 45.7384 9.60026C45.7384 11.3283 45.4504 12.8483 44.8744 14.1603C44.2984 15.4563 43.4744 16.4723 42.4024 17.2083C41.3304 17.9283 40.0504 18.2883 38.5624 18.2883ZM38.5624 16.5123C39.5384 16.5123 40.4104 16.2403 41.1784 15.6963C41.9624 15.1363 42.5704 14.3443 43.0024 13.3203C43.4504 12.2803 43.6744 11.0403 43.6744 9.60026C43.6744 8.16026 43.4504 6.92826 43.0024 5.90426C42.5704 4.88026 41.9624 4.09626 41.1784 3.55226C40.4104 2.99226 39.5384 2.71226 38.5624 2.71226C37.5704 2.71226 36.6904 2.99226 35.9224 3.55226C35.1544 4.09626 34.5464 4.88026 34.0984 5.90426C33.6504 6.92826 33.4264 8.16026 33.4264 9.60026C33.4264 11.0403 33.6504 12.2803 34.0984 13.3203C34.5464 14.3443 35.1544 15.1363 35.9224 15.6963C36.6904 16.2403 37.5704 16.5123 38.5624 16.5123Z" fill="white"/>
<path d="M55.203 18.2883C53.715 18.2883 52.427 17.9283 51.339 17.2083C50.267 16.4723 49.443 15.4563 48.867 14.1603C48.291 12.8483 48.003 11.3283 48.003 9.60026C48.003 7.87226 48.291 6.36026 48.867 5.06426C49.443 3.75226 50.267 2.73626 51.339 2.01626C52.427 1.28026 53.715 0.912259 55.203 0.912259C56.691 0.912259 57.971 1.28026 59.043 2.01626C60.115 2.73626 60.939 3.75226 61.515 5.06426C62.091 6.36026 62.379 7.87226 62.379 9.60026C62.379 11.3283 62.091 12.8483 61.515 14.1603C60.939 15.4563 60.115 16.4723 59.043 17.2083C57.971 17.9283 56.691 18.2883 55.203 18.2883ZM55.203 16.5123C56.179 16.5123 57.051 16.2403 57.819 15.6963C58.603 15.1363 59.211 14.3443 59.643 13.3203C60.091 12.2803 60.315 11.0403 60.315 9.60026C60.315 8.16026 60.091 6.92826 59.643 5.90426C59.211 4.88026 58.603 4.09626 57.819 3.55226C57.051 2.99226 56.179 2.71226 55.203 2.71226C54.211 2.71226 53.331 2.99226 52.563 3.55226C51.795 4.09626 51.187 4.88026 50.739 5.90426C50.291 6.92826 50.067 8.16026 50.067 9.60026C50.067 11.0403 50.291 12.2803 50.739 13.3203C51.187 14.3443 51.795 15.1363 52.563 15.6963C53.331 16.2403 54.211 16.5123 55.203 16.5123Z" fill="white"/>
<path d="M71.8436 18.2883C70.3556 18.2883 69.0676 17.9283 67.9796 17.2083C66.9076 16.4723 66.0836 15.4563 65.5076 14.1603C64.9316 12.8483 64.6436 11.3283 64.6436 9.60026C64.6436 7.87226 64.9316 6.36026 65.5076 5.06426C66.0836 3.75226 66.9076 2.73626 67.9796 2.01626C69.0676 1.28026 70.3556 0.912259 71.8436 0.912259C73.3316 0.912259 74.6116 1.28026 75.6836 2.01626C76.7556 2.73626 77.5796 3.75226 78.1556 5.06426C78.7316 6.36026 79.0196 7.87226 79.0196 9.60026C79.0196 11.3283 78.7316 12.8483 78.1556 14.1603C77.5796 15.4563 76.7556 16.4723 75.6836 17.2083C74.6116 17.9283 73.3316 18.2883 71.8436 18.2883ZM71.8436 16.5123C72.8196 16.5123 73.6916 16.2403 74.4596 15.6963C75.2436 15.1363 75.8516 14.3443 76.2836 13.3203C76.7316 12.2803 76.9556 11.0403 76.9556 9.60026C76.9556 8.16026 76.7316 6.92826 76.2836 5.90426C75.8516 4.88026 75.2436 4.09626 74.4596 3.55226C73.6916 2.99226 72.8196 2.71226 71.8436 2.71226C70.8516 2.71226 69.9716 2.99226 69.2036 3.55226C68.4356 4.09626 67.8276 4.88026 67.3796 5.90426C66.9316 6.92826 66.7076 8.16026 66.7076 9.60026C66.7076 11.0403 66.9316 12.2803 67.3796 13.3203C67.8276 14.3443 68.4356 15.1363 69.2036 15.6963C69.9716 16.2403 70.8516 16.5123 71.8436 16.5123Z" fill="white"/>
<path d="M1 14C16.2745 11.4118 54.0588 6.18824 83 6C64.5098 7.41176 22.2235 10.9882 1 14Z" stroke="#5DD9FF" stroke-width="4" stroke-linecap="round"/>
</svg>
