<svg width="20" height="20" viewBox="0 0 20 20" fill="none" xmlns="http://www.w3.org/2000/svg">
<path d="M18.9545 8.21772C19.2147 7.34697 19.2458 6.4726 19.2472 6.43115C19.2526 6.26275 19.1853 6.10018 19.0623 5.9849C19.0321 5.9565 18.3912 5.3597 17.591 4.92799C17.4983 4.02345 17.1922 3.2029 17.1775 3.16408C17.1181 3.00646 16.9936 2.88201 16.836 2.82259C16.7972 2.80794 15.9767 2.50177 15.0721 2.40915C14.6404 1.60888 14.0435 0.968056 14.0152 0.937783C13.8999 0.814892 13.7377 0.74747 13.569 0.752978C13.5275 0.754306 12.6531 0.7854 11.7823 1.04571C11.0844 0.470399 10.2967 0.0788754 10.2593 0.0604379C10.0959 -0.0201482 9.90429 -0.0201482 9.7409 0.0604379C9.70347 0.0788755 8.91574 0.4704 8.21781 1.04571C7.34706 0.785401 6.47268 0.754346 6.4312 0.752979C6.26276 0.74751 6.10022 0.814893 5.98499 0.937784C5.95659 0.968058 5.35975 1.60892 4.92803 2.40915C4.0235 2.50177 3.20299 2.80794 3.16416 2.82259C3.0065 2.88201 2.88209 3.00646 2.82263 3.16408C2.80799 3.20291 2.50177 4.02345 2.4092 4.92799C1.60896 5.35971 0.968098 5.95651 0.937825 5.9849C0.814934 6.10018 0.747551 6.26276 0.75298 6.43116C0.754308 6.47264 0.785402 7.34698 1.04572 8.21772C0.470401 8.91565 0.0788768 9.70343 0.0604393 9.74081C-0.0201469 9.90421 -0.0201469 10.0957 0.0604393 10.2591C0.0788768 10.2965 0.470362 11.0844 1.04575 11.7823C0.785519 12.653 0.754347 13.5273 0.753019 13.5688C0.747589 13.7372 0.814933 13.8998 0.937863 14.0151C0.968137 14.0435 1.609 14.6402 2.4092 15.0719C2.50181 15.9765 2.80799 16.7971 2.82263 16.8359C2.88209 16.9936 3.00654 17.118 3.1642 17.1774C3.20303 17.192 4.0235 17.4981 4.92799 17.5907C5.35971 18.391 5.95659 19.0319 5.98495 19.0621C6.10022 19.185 6.26186 19.2519 6.4312 19.2469C6.47264 19.2456 7.34694 19.2144 8.21761 18.9542C8.91558 19.5295 9.70339 19.9211 9.74082 19.9396C9.90422 20.0201 10.0958 20.0202 10.2592 19.9396C10.2966 19.9211 11.0844 19.5295 11.7824 18.9542C12.6531 19.2144 13.5273 19.2456 13.5688 19.2469C13.7371 19.2515 13.8998 19.185 14.015 19.0621C14.0434 19.0319 14.6403 18.391 15.072 17.5907C15.9765 17.4981 16.797 17.192 16.8358 17.1774C16.9935 17.118 17.1179 16.9936 17.1774 16.8359C17.192 16.7971 17.4983 15.9765 17.5908 15.0719C18.391 14.6402 19.0319 14.0435 19.0622 14.0151C19.1851 13.8998 19.2524 13.7372 19.247 13.5688C19.2457 13.5273 19.2145 12.653 18.9543 11.7823C19.5297 11.0844 19.9211 10.2965 19.9396 10.2591C20.0201 10.0957 20.0201 9.90421 19.9396 9.74081C19.9213 9.70342 19.5298 8.91565 18.9545 8.21772Z" fill="#00A438" fill-opacity="0.8"/>
<path d="M14.6175 5.72954C14.4674 5.59015 14.224 5.59015 14.0739 5.72954L7.79846 11.4945L6.11842 9.91706C5.96832 9.77771 5.72492 9.77773 5.57482 9.91709L4.48759 10.9265C4.33747 11.0659 4.33747 11.2919 4.48759 11.4312L7.52668 14.2705C7.67668 14.4098 7.92021 14.4099 8.07031 14.2705L15.7048 7.24369C15.8548 7.10445 15.8549 6.87832 15.7048 6.73896L14.6175 5.72954Z" fill="black"/>
</svg>
